PathFileType  4	(X/Y/Z) C:\Users\antoi\Documents\MyRepositories\mobilecap\ResultsAnalysis
DataRate	CameraRate	NumFrames	NumMarkers	Units	OrigDataRate	OrigDataStartFrame	OrigNumFrames
100.0	100.0	4	51	mm	100.0	515	1371
Frame#	Time	r_knee			r_shank_antsup			r_ankle			r_calc			r_5meta			r_toe			L_knee			L_shank_antsup			L_ankle			L_calc			L_5meta			L_toe			r_sh2			r_sh3			r_sh4			L_sh2			L_sh3			r_thigh1			r_thigh2			r_thigh3			r_thigh4			r_thigh5			L_thigh1			L_thigh2			L_thigh3			L_thigh4			r.ASIS			r.PSIS			L.ASIS			L.PSIS			C7			R_Shoulder			L_Shoulder			R_Sternum			L_Sternum			R_humerus			R_elbow_med			R_elbow_lat			R_forearm			R_wrist_radius			R_wrist_ulna			L_humerus			L_elbow_med			L_elbow_lat			L_forearm			L_wrist_radius			L_wrist_ulna			R_HJC			L_HJC			R_HJC_reg			L_HJC_reg			
		X1	Y1	Z1	X2	Y2	Z2	X3	Y3	Z3	X4	Y4	Z4	X5	Y5	Z5	X6	Y6	Z6	X7	Y7	Z7	X8	Y8	Z8	X9	Y9	Z9	X10	Y10	Z10	X11	Y11	Z11	X12	Y12	Z12	X13	Y13	Z13	X14	Y14	Z14	X15	Y15	Z15	X16	Y16	Z16	X17	Y17	Z17	X18	Y18	Z18	X19	Y19	Z19	X20	Y20	Z20	X21	Y21	Z21	X22	Y22	Z22	X23	Y23	Z23	X24	Y24	Z24	X25	Y25	Z25	X26	Y26	Z26	X27	Y27	Z27	X28	Y28	Z28	X29	Y29	Z29	X30	Y30	Z30	X31	Y31	Z31	X32	Y32	Z32	X33	Y33	Z33	X34	Y34	Z34	X35	Y35	Z35	X36	Y36	Z36	X37	Y37	Z37	X38	Y38	Z38	X39	Y39	Z39	X40	Y40	Z40	X41	Y41	Z41	X42	Y42	Z42	X43	Y43	Z43	X44	Y44	Z44	X45	Y45	Z45	X46	Y46	Z46	X47	Y47	Z47	X48	Y48	Z48	X49	Y49	Z49	X50	Y50	Z50	X51	Y51	Z51	

515	5.14000000	-132.05033	464.93888	-420.14862	-75.08629	419.57461	-425.60466	-245.25055	97.50838	-428.73387	-309.90482	56.89707	-474.17860	-126.87043	42.28550	-390.32069	-86.82066	64.85074	-445.17356	-137.57148	452.97941	-791.49182	-108.33907	377.68004	-799.33784	-261.11909	96.81062	-753.51792	-324.24236	58.09690	-702.50939	-149.24604	41.64797	-791.54516	-102.22639	60.80257	-740.85139	-106.90135	308.29887	-438.06714	-142.98679	432.99433	-390.81714	-170.79444	320.32757	-383.01216	-189.99928	411.89704	-809.83387	-229.41133	293.35352	-798.68669	-399.30505	575.43483	-508.44758	-290.54222	578.18362	-488.13389	-277.30655	561.06230	-424.13535	-416.14148	528.82101	-409.75448	-303.17443	518.53519	-396.22863	-435.89187	547.15617	-789.79203	-297.87130	515.55241	-810.46991	-459.90594	437.43893	-799.00867	-327.54248	405.97363	-782.26825	-452.31470	596.36485	-487.20241	-641.76182	590.48047	-561.22376	-443.20232	579.61185	-714.29943	-642.40995	591.58435	-657.68300	-416.50355	1033.79331	-617.83601	-346.25708	981.64480	-456.22906	-335.46963	970.06553	-763.99041	-331.31930	910.77306	-588.91244	-328.77613	907.57324	-624.06268	-380.11436	777.45638	-335.30441	-446.93656	668.97761	-345.67908	-402.84208	694.59766	-294.85845	-284.70204	725.62155	-362.72530	-225.83929	767.86006	-431.58055	-203.59390	731.57447	-416.18303	-361.72479	761.37259	-867.34224	-410.29686	639.46638	-834.12071	-378.23925	655.41815	-896.65984	-254.16594	707.20479	-831.14855	-194.93551	766.46295	-771.58097	-173.12456	727.61232	-768.94733	-508.87522	500.99288	-514.32772	-517.34179	497.35999	-704.77725	-500.93765	505.81229	-518.82155	-501.94800	507.53237	-669.21947	
516	5.15000000	-133.34156	465.37558	-419.32860	-76.23509	420.17179	-424.70002	-245.28776	97.59646	-428.42352	-309.89482	56.95628	-474.17494	-126.84850	42.30080	-390.23959	-86.83141	64.86666	-445.09234	-138.64462	453.28275	-792.32200	-109.22510	377.98555	-800.12881	-261.21574	96.77405	-753.56817	-324.27306	58.09276	-702.52635	-149.25363	41.62157	-791.56042	-102.25272	60.87726	-740.94764	-107.76940	308.83832	-437.39046	-144.19173	433.36463	-389.91349	-171.79264	320.67159	-382.43265	-190.87342	411.98128	-810.46581	-229.06341	294.49962	-800.92047	-400.43458	575.84251	-507.96113	-291.85905	578.47755	-487.24901	-278.74087	561.42304	-423.33560	-417.52083	528.14267	-410.28450	-304.63949	518.71306	-395.64234	-437.21803	547.11202	-789.83969	-299.16557	515.87771	-811.22850	-461.56666	436.83216	-799.13311	-328.46571	406.11466	-782.59672	-454.79793	597.13793	-487.08565	-643.78659	589.51824	-561.44076	-445.48157	580.42220	-714.54442	-644.43789	590.70680	-658.00795	-423.19518	1034.86049	-617.66919	-353.23673	984.05868	-456.59396	-341.87533	972.16717	-764.65246	-337.22377	913.45555	-589.64719	-334.49473	910.16416	-624.61045	-388.83885	779.35501	-336.37936	-456.46591	672.86022	-348.23089	-412.57785	696.44147	-296.40400	-293.88882	727.09051	-363.26179	-234.36487	769.27963	-431.62096	-212.29053	733.06052	-416.09564	-368.93843	763.24655	-867.62885	-417.94043	641.57285	-834.38054	-385.99349	657.15513	-896.54216	-261.66011	708.86024	-831.46390	-202.21894	768.03495	-772.08048	-180.59798	729.12352	-769.44634	-510.36761	501.24115	-514.47805	-518.66456	497.54884	-704.93341	-502.43488	505.91338	-518.84814	-503.45053	507.76796	-669.48545	
517	5.16000000	-134.72311	465.87521	-418.49379	-77.40539	420.88050	-423.80566	-245.37949	97.61781	-428.23989	-309.89949	56.98190	-474.15868	-126.89000	42.30140	-390.26209	-86.87306	64.93291	-445.01421	-139.71388	453.69377	-792.81833	-110.14704	378.15144	-800.48808	-261.31203	96.74408	-753.60940	-324.30150	58.07964	-702.54892	-149.25686	41.60786	-791.56491	-102.29214	60.95095	-741.00945	-108.61458	309.32940	-436.75811	-145.42149	433.74668	-389.11483	-172.76970	320.91226	-381.99904	-191.88415	412.12613	-811.05504	-229.64577	294.82605	-801.57225	-401.69301	575.95812	-507.40663	-293.37336	578.65151	-486.67558	-280.27228	561.61085	-422.65802	-418.99536	527.71355	-410.43454	-306.16943	518.77565	-395.09809	-438.60807	547.10903	-789.96472	-300.52417	516.21444	-811.65498	-463.66721	436.27723	-799.38477	-329.47905	406.29471	-782.89503	-457.05829	597.44948	-487.07214	-645.87019	588.51913	-561.69462	-449.14174	579.77907	-715.89645	-646.46670	589.69752	-658.34063	-429.64053	1036.16363	-618.09402	-360.17036	986.46945	-456.77133	-348.33817	974.37859	-765.34217	-342.89554	916.12692	-590.28614	-340.08866	912.81661	-625.33599	-397.29944	781.24848	-337.39895	-466.51249	676.49134	-350.49432	-421.86654	698.33614	-297.62693	-302.70994	728.74992	-363.64747	-242.70119	770.79529	-431.61361	-220.79469	734.41216	-416.05197	-375.94579	765.13847	-868.04068	-425.48268	643.72771	-834.69825	-393.54892	658.96461	-896.64567	-269.00630	710.49252	-831.67282	-209.44295	769.61871	-772.69131	-187.88900	730.70150	-770.01931	-512.20732	501.10758	-514.79599	-521.14902	496.74475	-705.20415	-504.62769	504.98263	-519.09258	-505.56312	506.82947	-670.64686	
518	5.17000000	-136.09170	466.41763	-417.77583	-78.60025	421.52046	-423.18707	-245.53968	97.56645	-428.12473	-309.93485	56.94719	-474.13317	-126.98062	42.33109	-390.30528	-86.93212	65.02454	-444.94724	-140.85719	454.14789	-793.30764	-111.09974	378.54634	-800.84744	-261.40785	96.81302	-753.82311	-324.32905	58.05646	-702.57319	-149.26480	41.60308	-791.55995	-102.33622	60.99698	-741.03979	-109.46535	309.85814	-436.24031	-146.76929	434.07379	-388.69008	-173.83994	321.23012	-381.48961	-193.02156	412.33058	-811.41355	-230.63731	294.73089	-801.25575	-403.14334	575.94361	-507.00612	-294.98290	578.77069	-486.34871	-281.84672	561.68393	-422.27238	-420.69142	528.09982	-409.79062	-307.68188	518.78910	-394.73753	-440.05208	547.07368	-790.02801	-301.98502	516.52017	-811.81347	-465.22142	436.31468	-799.95364	-330.58276	406.55339	-783.20034	-458.65934	596.70581	-487.20672	-647.92263	587.41537	-561.93316	-452.82403	578.47279	-717.37346	-648.45749	588.46155	-658.45607	-435.90354	1037.71792	-619.18484	-367.05226	988.64801	-456.98221	-354.86296	976.60496	-766.18426	-348.36155	918.72869	-590.99517	-345.53972	915.47888	-626.08944	-405.50634	782.97595	-338.24694	-475.50169	678.90513	-351.91950	-430.66998	700.23234	-298.48330	-311.18501	730.38204	-363.99201	-250.74348	772.36759	-431.50281	-229.03402	735.62684	-416.08201	-382.75453	767.00744	-868.64568	-432.87102	645.87362	-835.00954	-400.83505	660.92110	-897.18180	-276.19872	712.11348	-832.26955	-216.47737	771.27654	-773.52735	-194.88960	732.33682	-770.81647	-514.01933	500.20947	-515.31075	-523.96286	495.46333	-705.66050	-507.04191	503.61276	-519.39026	-507.88720	505.26344	-671.81722	
